<svg width="189" height="56" viewBox="0 0 189 56" fill="none" xmlns="http://www.w3.org/2000/svg">
<path fill-rule="evenodd" clip-rule="evenodd" d="M28 56C43.464 56 56 43.464 56 28C56 12.536 43.464 0 28 0C12.536 0 0 12.536 0 28C0 43.464 12.536 56 28 56ZM41 20H31.9503V36.7652H35.4167V22.9116H41V20ZM28.3292 24.3909V22.982H30.3066V20.2818H18V22.982H24.6069V24.3909H18V26.8329H24.4906C24.3666 27.3338 24.1107 27.7017 23.7229 27.9365C23.3507 28.1556 22.7769 28.3043 22.0014 28.3826C21.2414 28.4452 20.055 28.4765 18.442 28.4765V31.5055C18.442 33.337 18.8995 34.7146 19.8146 35.6381C20.7451 36.546 22.0789 37 23.816 37C25.4289 37 26.6619 36.5617 27.5149 35.6851C28.3835 34.8085 28.8487 33.5797 28.9108 31.9986H25.2351C25.2351 32.6561 25.1188 33.1492 24.8861 33.4779C24.6535 33.8066 24.2657 33.971 23.7229 33.971C23.1491 33.971 22.7458 33.8066 22.5132 33.4779C22.2806 33.1335 22.1642 32.6561 22.1642 32.0456V31.1064C24.0098 31.1064 25.4134 30.7463 26.375 30.0262C27.3366 29.2905 27.9414 28.2261 28.1896 26.8329H30.3066V24.3909H28.3292Z" fill="white"/>
<path d="M76.5876 38.0281L71.0463 28.0937H69.4902V38.0281H63V11.7113H73.8929C75.993 11.7113 77.7768 12.0737 79.2444 12.7985C80.7373 13.5233 81.8506 14.523 82.5844 15.7976C83.3182 17.0472 83.6851 18.4467 83.6851 19.9963C83.6851 21.7457 83.179 23.3077 82.1669 24.6823C81.1801 26.0569 79.7125 27.0316 77.7642 27.6064L83.9128 38.0281H76.5876ZM69.4902 23.5576H73.5133C74.7026 23.5576 75.5882 23.2702 76.1701 22.6954C76.7774 22.1206 77.081 21.3083 77.081 20.2587C77.081 19.259 76.7774 18.4717 76.1701 17.8969C75.5882 17.3221 74.7026 17.0347 73.5133 17.0347H69.4902V23.5576Z" fill="white"/>
<path d="M91.0233 14.9353C89.8846 14.9353 88.9484 14.6104 88.2146 13.9606C87.5062 13.2858 87.1519 12.4611 87.1519 11.4864C87.1519 10.4867 87.5062 9.66198 88.2146 9.01218C88.9484 8.33739 89.8846 8 91.0233 8C92.1366 8 93.0475 8.33739 93.756 9.01218C94.4897 9.66198 94.8566 10.4867 94.8566 11.4864C94.8566 12.4611 94.4897 13.2858 93.756 13.9606C93.0475 14.6104 92.1366 14.9353 91.0233 14.9353ZM94.2494 17.1097V38.0281H87.7592V17.1097H94.2494Z" fill="white"/>
<path d="M110.756 32.5923V38.0281H107.454C105.101 38.0281 103.267 37.4658 101.951 36.3411C100.635 35.1915 99.9775 33.3296 99.9775 30.7554V22.433H97.3966V17.1097H99.9775V12.0112H106.468V17.1097H110.719V22.433H106.468V30.8304C106.468 31.4552 106.619 31.905 106.923 32.1799C107.227 32.4549 107.733 32.5923 108.441 32.5923H110.756Z" fill="white"/>
<path d="M135.284 17.1097V38.0281H128.794V35.179C128.136 36.1037 127.238 36.8535 126.099 37.4283C124.986 37.9781 123.746 38.253 122.38 38.253C120.761 38.253 119.331 37.9032 118.091 37.2034C116.851 36.4786 115.89 35.4414 115.207 34.0918C114.523 32.7423 114.182 31.1553 114.182 29.3308V17.1097H120.634V28.4686C120.634 29.8682 121.001 30.9553 121.735 31.7301C122.469 32.5048 123.455 32.8922 124.695 32.8922C125.96 32.8922 126.96 32.5048 127.694 31.7301C128.427 30.9553 128.794 29.8682 128.794 28.4686V17.1097H135.284Z" fill="white"/>
<path d="M146.436 20.5961C147.196 19.4464 148.144 18.5467 149.283 17.8969C150.422 17.2221 151.687 16.8847 153.078 16.8847V23.6701H151.295C149.675 23.6701 148.461 24.02 147.651 24.7198C146.841 25.3946 146.436 26.5942 146.436 28.3187V38.0281H139.946V17.1097H146.436V20.5961Z" fill="white"/>
<path d="M154.89 27.5314C154.89 25.3821 155.295 23.4952 156.105 21.8707C156.94 20.2462 158.066 18.9966 159.483 18.1218C160.9 17.2471 162.481 16.8097 164.227 16.8097C165.72 16.8097 167.023 17.1097 168.136 17.7095C169.275 18.3093 170.148 19.0965 170.755 20.0712V17.1097H177.245V38.0281H170.755V35.0665C170.122 36.0412 169.237 36.8285 168.098 37.4283C166.985 38.0281 165.682 38.328 164.189 38.328C162.468 38.328 160.9 37.8907 159.483 37.0159C158.066 36.1162 156.94 34.8541 156.105 33.2296C155.295 31.5801 154.89 29.6807 154.89 27.5314ZM170.755 27.5689C170.755 25.9694 170.3 24.7073 169.389 23.7826C168.503 22.8579 167.415 22.3955 166.125 22.3955C164.834 22.3955 163.733 22.8579 162.823 23.7826C161.937 24.6823 161.494 25.9319 161.494 27.5314C161.494 29.1309 161.937 30.4055 162.823 31.3552C163.733 32.2799 164.834 32.7423 166.125 32.7423C167.415 32.7423 168.503 32.2799 169.389 31.3552C170.3 30.4305 170.755 29.1684 170.755 27.5689Z" fill="white"/>
<path d="M185.167 14.9353C184.028 14.9353 183.092 14.6104 182.358 13.9606C181.65 13.2858 181.295 12.4611 181.295 11.4864C181.295 10.4867 181.65 9.66198 182.358 9.01218C183.092 8.33739 184.028 8 185.167 8C186.28 8 187.191 8.33739 187.899 9.01218C188.633 9.66198 189 10.4867 189 11.4864C189 12.4611 188.633 13.2858 187.899 13.9606C187.191 14.6104 186.28 14.9353 185.167 14.9353ZM188.431 40.7273C188.431 43.3015 187.773 45.1509 186.457 46.2755C185.141 47.4252 183.307 48 180.954 48H178.411V42.5642H179.967C180.675 42.5642 181.181 42.4267 181.485 42.1518C181.789 41.8769 181.941 41.4271 181.941 40.8023V17.1097H188.431V40.7273Z" fill="white"/>
</svg>
